<svg width="10" height="17" viewBox="0 0 10 17" fill="none" xmlns="http://www.w3.org/2000/svg">
<path d="M2.29262 1.29377V1.62251C2.29262 1.75401 2.17314 3.59493 2.17314 3.52919C2.11339 5.23862 2.05365 6.94805 1.99391 8.65748C1.99391 8.72323 1.99391 9.44645 1.99391 9.3807C1.93417 9.3807 1.09777 9.3807 1.15751 9.3807H0.858799C0.619829 9.3807 0.321116 9.5122 0.201631 9.77518C0.0224035 9.97243 -0.0373391 10.3012 0.0224034 10.5642L0.201631 10.9586C0.261374 11.0244 1.09777 12.1421 1.03803 12.0763L2.53159 14.1145C2.59133 14.246 3.72644 15.6924 3.6667 15.6267L3.84593 15.8897C3.90567 15.9554 3.90567 16.0212 4.14464 16.2842C4.38361 16.4814 4.68232 16.4814 4.92129 16.4157C5.16026 16.3499 5.45898 16.0212 5.45898 16.0212C5.51872 15.8897 6.59408 14.4432 6.59408 14.509L8.08765 12.4708C8.14739 12.4051 9.04353 11.1559 8.98379 11.2216L9.10327 11.0901C9.16301 11.0244 9.16301 11.0244 9.22276 10.8929C9.52147 10.3669 9.22276 9.57794 8.56559 9.44645H8.4461H8.38636H8.26688H7.96816H7.37074H7.25125C7.25125 8.78897 7.25125 7.80276 7.07202 3.98942L6.95254 1.42527C6.95254 1.16228 6.83306 0.899291 6.65383 0.767796C6.4746 0.570554 6.23563 0.504806 6.0564 0.570554L4.86155 0.702049L6.0564 0.833544C6.41486 0.833544 6.71357 1.16228 6.65383 1.49102L6.53434 4.05516C6.35511 7.86851 6.35511 8.85472 6.35511 9.5122V9.70944C6.35511 10.1039 6.65383 10.4984 7.01228 10.5642H7.25125H7.37074H7.96816H8.02791C7.96816 10.6299 7.13177 11.7476 7.19151 11.6819L5.69795 13.6543C5.51872 13.8515 4.68232 15.035 4.74206 14.9692C4.62258 14.772 3.42773 13.2598 3.48747 13.3255L1.99391 11.3531L1.39648 10.6299C1.45622 10.6299 2.17314 10.6299 2.11339 10.6299H2.29262C2.71082 10.6299 3.12902 10.2354 3.06927 9.70944C3.06927 9.64369 3.06927 8.78897 3.06927 8.85472C3.00953 7.14529 2.94979 5.43586 2.89005 3.72643C2.89005 3.59493 2.77056 1.68826 2.77056 1.81975C2.77056 1.55676 2.71082 1.42527 2.8303 1.29377C2.89005 1.16228 3.00953 1.03079 3.18876 0.965038C3.36799 0.899291 3.54721 0.965038 3.72644 0.89929L4.92129 0.767796L3.72644 0.636301C3.54721 0.636301 3.36799 0.570554 3.12902 0.636301C2.65108 0.570554 2.35236 0.899291 2.29262 1.29377Z" fill="#2C2E6B"/>
</svg>
